<?xml version="1.0" encoding="UTF-8"?> <svg version="1.1" viewBox="0 0 1000 623" xmlns="http://www.w3.org/2000/svg"> <g transform="translate(-.60606 .25223)"> <svg width="1e3" height="623" data-background-color="#ffffff" viewBox="0 0 396 247" xmlns="http://www.w3.org/2000/svg" xmlns:xlink="http://www.w3.org/1999/xlink"> <g transform="translate(.24 -.1)"> <svg width="395.52" height="247.2" viewBox="0 0 395.52 247.2"> <svg/> <svg width="395.52" height="247.2" viewBox="0 0 395.52 247.2"> <g transform="translate(141.62 37.08)"> <svg width="112.28" height="173.04" viewBox="0 0 112.28046444121917 173.04"> <svg width="112.28" height="173.04" viewBox="0 0 112.28046444121917 173.04"> <svg width="112.28" height="173.04" viewBox="0 0 112.28046444121917 173.04"> <svg width="112.28" height="173.04" viewBox="0 0 112.28046444121917 173.04"> <svg width="112.28" height="173.04" viewBox="0 0 112.28046444121917 173.04"> <svg width="112.28" height="173.04" viewBox="0 0 112.28046444121917 173.04"> <g> <svg width="112.28" height="173.04" data-palette-color="#77d4fc" viewBox="3.549999952316284 -37.099998474121094 24.075000762939453 37.099998474121094"> <path class="undefined-text-0" d="m27.5-0.95q0.2 0.35 0.08 0.65-0.13 0.3-0.63 0.3h-4.45q-0.35 0-0.6-0.2t-0.4-0.55l-6.85-12.1q-0.1-0.3-0.25-0.35t-0.4 0.25l-4.75 4.75q-0.2 0.2-0.3 0.42-0.1 0.23-0.1 0.63v6.2q0 0.55-0.22 0.75-0.23 0.2-0.78 0.2h-3.45q-0.5 0-0.67-0.18-0.18-0.17-0.18-0.62v-35.55q0-0.75 0.65-0.75h4q0.65 0 0.65 0.75v22.35q0 0.35 0.12 0.42 0.13 0.08 0.43-0.22l11.4-12.05q0.65-0.65 1.15-0.65h3.75q0.6 0 0.7 0.3t-0.35 0.75l-7.6 7.75q-0.2 0.2-0.25 0.4t0.15 0.65l9.15 15.7z" fill="#77d4fc" data-fill-palette-color="primary"/> </svg> </g> </svg> </svg> </svg> </svg> </svg> </svg> </g> <g mask="url(#a)"> <g transform="matrix(5.1083 0 0 5.1083 75.16 1)"> <svg class="icon-none" width="48" height="48" enable-background="new 0 0 50 50" data-fill-palette-color="accent" version="1.0" viewBox="1 1 48 48" xml:space="preserve" xmlns="http://www.w3.org/2000/svg" xmlns:xlink="http://www.w3.org/1999/xlink"> <g fill="#77d4fc" data-fill-palette-color="accent"> <g data-fill-palette-color="accent"> <rect x="1" y="1" width="23" height="5" data-fill-palette-color="accent"/> <rect x="1" y="10" width="23" height="5" data-fill-palette-color="accent"/> <rect x="1" y="19" width="23" height="5" data-fill-palette-color="accent"/> </g> <g data-fill-palette-color="accent"> <rect x="26" y="26" width="23" height="5" data-fill-palette-color="accent"/> <rect x="26" y="35" width="23" height="5" data-fill-palette-color="accent"/> <rect x="26" y="44" width="23" height="5" data-fill-palette-color="accent"/> </g> <g data-fill-palette-color="accent"> <rect x="19" y="26" width="5" height="23" data-fill-palette-color="accent"/> <rect x="10" y="26" width="5" height="23" data-fill-palette-color="accent"/> <rect x="1" y="26" width="5" height="23" data-fill-palette-color="accent"/> </g> <g data-fill-palette-color="accent"> <rect x="44" y="1" width="5" height="23" data-fill-palette-color="accent"/> <rect x="35" y="1" width="5" height="23" data-fill-palette-color="accent"/> <rect x="26" y="1" width="5" height="23" data-fill-palette-color="accent"/> </g> </g> </svg> </g> </g> </svg> <defs> <mask id="a"> <rect width="640" height="400" fill="#fff"/> <rect x="136.01" y="-3.7706" width="123.51" height="254.74"/> </mask> </defs> </svg> <rect width="395.52" height="247.2" fill="none" visibility="hidden"/> </g> </svg> </g> </svg>
